<svg width="256" height="220" viewBox="0 0 256 220" fill="none" xmlns="http://www.w3.org/2000/svg">
<path d="M231 40.1703C156.842 -30.3137 79.5 43.3333 64.5 62.337C44 91.837 63.5 186.17 3 204.836L25 216.336L83 204.836C110 222.837 145.752 218.89 163.5 213.67C248.5 188.67 280.454 87.174 231 40.1703Z" fill="#0050CF" stroke="black" stroke-width="2"/>
<path d="M210.5 31.6662C136.342 -38.8178 58 31.663 43 50.6668C22.5 80.1667 3.5 122.667 33.5 167.166L3.5 204.666L61.5 193.166C88.5 211.167 123.319 205.089 141.5 201.666C215 187.825 259.954 78.6699 210.5 31.6662Z" fill="#C2DAFF" stroke="black" stroke-width="2"/>
<path d="M61.0006 74.6735C70.9164 55.6699 100.501 27.6699 129.001 60.1735C146.001 38.1727 196.001 33.6699 196.001 83.1738C196.001 114.816 180.001 139.171 116.001 183.674C90.6672 169.507 37 120.67 61.0006 74.6735Z" fill="white" stroke="black" stroke-width="2"/>
</svg>
