<svg width="75" height="86" viewBox="0 0 75 86" fill="none" xmlns="http://www.w3.org/2000/svg">
<path d="M66.253 17.406L38.4122 5.08535C33.3282 2.66898 30.6652 4.36004 28.0022 9.43381L6.21372 49.5362C1.37162 58.2325 -2.01772 63.0641 5.00325 67.1716L40.8331 83.3575L40.9376 83.3992C45.7168 85.3066 48.6044 86.4591 51.9695 81.1833C56.0623 74.7664 68.109 50.3415 74 39.1482L66.253 17.406Z" fill="#0050CF" stroke="#0F0F14" stroke-width="0.481081"/>
<path d="M66.253 14.406L38.4122 2.08535C33.3282 -0.331022 30.6652 1.36004 28.0022 6.43381L6.21372 46.5362C1.37162 55.2325 -2.01772 60.0641 5.00325 64.1716L40.8331 80.3575L40.9376 80.3992C45.7168 82.3066 48.6044 83.4591 51.9695 78.1833C56.0623 71.7664 68.109 47.3415 74 36.1482L66.253 14.406Z" fill="#C2DAFF" stroke="#0F0F14" stroke-width="0.481081"/>
<path d="M60.7634 25.1461L66.1561 15L74 36L63.95 31.7528C60.273 30.1011 59.0475 28.9213 60.7634 25.1461Z" fill="white" stroke="#0F0F14" stroke-width="0.481081"/>
<path d="M55 35.4208L37.4414 31L31.4282 42.7888C29.985 40.5784 25.2619 39.3234 23.2511 44.0168C21.5676 47.9464 28.7845 52.3672 31.9105 46.7184L36.7198 37.3856L49.9489 40.5784L46.341 47.2096C45.38 45.4904 43.9368 44.9992 42.4936 45.2448C39.4378 45.7649 36.2399 48.9288 39.3656 52.6128C40.6485 53.759 44.6595 55.56 47.0637 51.3848L55 35.4208Z" fill="white" stroke="#0F0F14" stroke-width="0.481081"/>
</svg>
