<svg width="148" height="105" viewBox="0 0 148 105" fill="none" xmlns="http://www.w3.org/2000/svg">
<path d="M70.9286 21.3544C69.3175 20.874 67.6002 20.8822 65.9937 21.3778C64.3872 21.8735 62.964 22.8344 61.9036 24.1391C60.8433 25.4438 60.1937 27.0335 60.037 28.7075C59.8803 30.3812 60.2233 32.064 61.023 33.5429C61.8226 35.0217 63.0428 36.2303 64.5294 37.0156C66.0157 37.8009 67.7017 38.1278 69.374 37.9549C71.0463 37.7819 72.6297 37.117 73.9241 36.0441C75.2183 34.9713 76.1655 33.5387 76.6456 31.9275C76.9646 30.8578 77.0697 29.7358 76.955 28.6255C76.8404 27.5153 76.508 26.4385 75.9772 25.4567C75.4462 24.4749 74.7272 23.6073 73.861 22.9035C72.9948 22.1994 71.9983 21.6731 70.9286 21.3544ZM66.6586 35.6794C66.3517 35.578 66.0962 35.361 65.9465 35.0743C65.797 34.7878 65.765 34.4542 65.8574 34.1443C65.9498 33.8345 66.1592 33.573 66.4413 33.4151C66.7235 33.2572 67.056 33.2155 67.3684 33.2989C67.529 33.3417 67.6793 33.4164 67.8105 33.5182C67.9419 33.6203 68.0513 33.7476 68.1324 33.8926C68.2135 34.0376 68.2649 34.1976 68.2831 34.3628C68.3014 34.5279 68.2863 34.6951 68.2388 34.8545C68.1913 35.0137 68.1123 35.1619 68.0066 35.2902C67.9008 35.4183 67.7704 35.524 67.623 35.601C67.4757 35.6779 67.3145 35.7244 67.1488 35.738C66.9831 35.7513 66.8165 35.7315 66.6586 35.6794ZM70.8916 26.9653C70.1142 28.6569 69.3481 30.4484 68.3164 32.008C68.0685 32.3846 67.2911 32.1529 67.2895 31.7022C67.3027 30.3016 67.4102 28.9035 67.6114 27.5174C67.737 26.505 67.6388 24.7699 68.458 23.9909C69.1855 23.2939 70.5504 23.5933 71.2022 24.2629C71.9861 25.0805 71.2682 26.1219 70.8916 26.9653Z" fill="#0050CF"/>
<path d="M46.6369 39.3526C45.9176 39.8765 45.37 40.6019 45.0633 41.4369C44.7567 42.2719 44.705 43.1791 44.9143 44.0438C45.1238 44.9083 45.5852 45.6916 46.2402 46.2944C46.8951 46.8972 47.714 47.2926 48.5938 47.4304C49.4735 47.5683 50.3742 47.4425 51.1822 47.069C51.9902 46.6955 52.669 46.091 53.1329 45.3318C53.5968 44.5728 53.825 43.6933 53.7886 42.8045C53.7523 41.9157 53.4529 41.0576 52.9284 40.3387C52.5801 39.8612 52.1409 39.4568 51.6362 39.1488C51.1314 38.8408 50.571 38.635 49.9866 38.5436C49.4024 38.452 48.8059 38.4762 48.2311 38.6151C47.6564 38.7539 47.1146 39.0044 46.6369 39.3526ZM51.3011 45.7461C51.1595 45.8388 50.9877 45.8736 50.8212 45.8433C50.6547 45.813 50.5062 45.7199 50.4066 45.5833C50.3068 45.4465 50.2636 45.2768 50.2857 45.1092C50.3078 44.9416 50.3936 44.7889 50.5254 44.6828C50.6668 44.59 50.8387 44.5552 51.0052 44.5855C51.1716 44.6158 51.3201 44.7089 51.4199 44.8456C51.5196 44.9823 51.5628 45.152 51.5407 45.3196C51.5186 45.4871 51.4327 45.6399 51.3011 45.7461ZM48.9898 41.1685C49.4527 42.0383 49.9622 42.9346 50.2857 43.8728C50.3643 44.0983 50.0177 44.3506 49.8269 44.2067C49.2404 43.7513 48.6848 43.2576 48.1636 42.7291C47.7761 42.3503 47.0138 41.8349 46.949 41.2406C46.8831 40.7037 47.4542 40.2295 47.9451 40.1724C48.5476 40.1023 48.7547 40.7392 48.9898 41.1685Z" fill="#0050CF"/>
<path d="M28.9892 61.3107C28.9892 61.3107 13.2031 43.4613 32.8883 34.623C52.5734 25.7847 56.4708 24.5566 55.0506 15.3628C53.6304 6.16889 64.7941 -3.19289 82.3505 2.99342C99.907 9.17974 102.123 19.7986 111.015 21.8495C140.832 28.7261 155.551 45.3662 141.829 90" stroke="#C2DAFF" stroke-width="0.799382" stroke-miterlimit="10"/>
<path d="M138.866 95.7643C138.826 96.753 138.571 97.7208 138.118 98.6001C138.1 98.6438 138.079 98.6863 138.055 98.7272C137.261 100.157 136.15 101.386 134.808 102.318L134.76 102.351C133.549 103.163 132.186 103.722 130.753 103.994H146C146 103.994 143.96 74.8355 125.214 60.6485C107.073 46.9206 90.0882 53.5368 89.0107 53.9794C89.3445 54.9241 89.4938 55.9245 89.4506 56.9258C89.4506 56.9258 90.8148 57.6377 91.0422 60.1861C91.2696 62.7344 91.7441 69.8197 87.1819 71.1542C87.1819 71.1542 83.0861 71.0534 82.0037 69.4778C80.9212 67.9022 80.6609 68.2226 80.2358 68.6223C79.9063 68.9245 77.9177 70.0047 77 70.5001C77.116 70.5058 77.2312 70.5218 77.3443 70.548C77.3443 70.548 77.8699 74.9941 84.3004 81.9621C84.5182 82.1922 84.7239 82.4336 84.9165 82.6855C85.8875 83.5365 86.9788 84.4053 88.1903 85.2917L95.5285 90.6742C95.6941 90.8154 95.8905 90.9155 96.1019 90.9665C96.5124 91.0702 96.9416 91.0742 97.354 90.9781C98.2074 90.8129 104.035 90.2167 107.806 89.8401C107.892 89.8401 107.982 89.8236 108.066 89.8137L108.561 89.7658C108.64 89.7658 108.725 89.7493 108.795 89.7443L109.24 89.7014C109.457 89.6799 109.653 89.6584 109.834 89.6436L110.329 89.5957C110.765 89.5527 111.024 89.5263 111.045 89.5263C111.944 89.5007 112.839 89.4135 113.726 89.2654C114.574 89.1002 115.349 88.8343 115.55 88.3933C115.588 88.3004 115.602 88.1991 115.591 88.0994C115.545 87.8188 115.428 87.5548 115.252 87.333C114.477 86.2909 112.678 85.3974 112.546 85.333C112.542 85.3316 112.538 85.3316 112.535 85.333L112.498 85.3065L101.789 76.9661H101.778C101.778 76.9661 103.391 59.717 118.089 63.9616C118.089 63.9616 118.158 64.0095 118.285 64.1152C118.858 64.5578 120.662 66.0244 123.315 68.7643C123.384 68.8387 123.458 68.913 123.532 68.9923C123.814 69.2796 124.091 69.5786 124.366 69.8709C126.228 71.866 128.43 74.4078 130.861 77.5772L130.877 77.5937C133.661 81.2271 135.668 84.5567 136.973 87.5031V87.513C138.385 90.7154 138.98 93.4587 138.863 95.6471C138.866 95.686 138.868 95.7252 138.866 95.7643ZM94.535 66.1169C94.1001 61.0911 96.5401 59.2711 96.6769 59.1703C93.2071 65.4628 99.6425 75.1081 99.8682 75.4813C99.6837 75.3261 94.97 71.141 94.535 66.1169Z" fill="#353642"/>
<path d="M84.8415 65.6317C84.66 65.7654 84.4708 65.8884 84.275 66L83.1385 64.0094C85.7593 62.6674 86.4948 60.3019 85.3418 59.003C85.0194 58.6477 84.6038 58.3902 84.1424 58.2599C82.9828 57.9082 82.1794 58.4257 81.6344 59.1208C81.1896 59.7249 80.8634 60.4084 80.6735 61.1346L80.1202 54.7448L80.0772 54.2471C80.0772 54.2471 78.8712 53.6483 75.6044 54.1824C72.3376 54.7166 71.7363 56.523 70.3331 55.7218C68.93 54.9206 68.1348 54.9853 68.1348 54.9853C67.7356 56.4534 66.6671 56.4534 66.6671 56.4534C66.414 56.4227 66.1653 56.3621 65.9266 56.2726C64.4108 54.8775 64 52.4572 64 52.4572C65.5903 52.2598 65.7129 50.7271 65.5307 49.4713C66.412 49.9955 67.6544 50.032 69.3988 48.9106C74.4034 45.7058 79.5355 47.4409 81.3395 47.708C82.1446 47.8258 83.0259 47.5421 83.7565 47.2103C83.8509 47.3797 83.9822 47.5253 84.1408 47.6367C85.3585 48.4861 86.3629 49.607 87.0746 50.9112C91.771 59.7014 86.6223 64.3694 84.8415 65.6317Z" fill="#0050CF"/>
<path d="M65.7395 104H67.6162C68.4189 103.999 69.1883 103.679 69.7559 103.109C70.3233 102.54 70.6427 101.768 70.6435 100.963V98.8552C70.6435 98.6632 70.6058 98.4729 70.5324 98.2955C70.4592 98.118 70.3517 97.9568 70.2162 97.821C70.0807 97.6852 69.92 97.5777 69.7431 97.5044C69.5661 97.4309 69.3765 97.3934 69.185 97.3936H57.9613C57.9618 97.8422 57.8739 98.2864 57.703 98.7008C57.5322 99.1154 57.2813 99.4919 56.9651 99.8091C56.6488 100.126 56.2733 100.378 55.8601 100.549C55.447 100.72 55.0041 100.808 54.557 100.807H14C14.0005 101.654 14.3358 102.466 14.9326 103.064C15.5291 103.663 16.3382 104 17.1821 104H72.1646C72.2364 104 72.3077 103.986 72.374 103.959C72.4403 103.931 72.5008 103.891 72.5516 103.84C72.6023 103.789 72.6427 103.728 72.67 103.662C72.6973 103.595 72.7113 103.524 72.7111 103.452V100.031C72.7111 99.3666 72.9742 98.7294 73.4425 98.2595C73.9109 97.7896 74.5461 97.5257 75.2084 97.5257C75.8707 97.5257 76.5059 97.7896 76.9743 98.2595C77.4426 98.7294 77.7057 99.3666 77.7057 100.031V103.452C77.7055 103.524 77.7193 103.595 77.7466 103.661C77.774 103.728 77.814 103.788 77.8647 103.839C77.9152 103.89 77.9755 103.931 78.0416 103.958C78.1078 103.986 78.1788 104 78.2505 104H145C145 104 142.962 74.8343 124.232 60.6487C106.106 46.9205 89.1351 53.5368 88.0585 53.9795L88.0058 53.9993" stroke="#0F0F14" stroke-width="0.799382" stroke-miterlimit="10"/>
<path d="M70 61.0035C69.9993 61.201 69.94 61.3941 69.8299 61.558C69.7196 61.7219 69.5634 61.8496 69.3806 61.9247C69.1979 62 68.9972 62.0194 68.8034 61.9804C68.6096 61.9416 68.4319 61.8462 68.2924 61.7066C68.1527 61.5667 68.0577 61.3886 68.0192 61.1948C67.9806 61.0011 68.0004 60.8003 68.076 60.6178C68.1515 60.4352 68.2794 60.2792 68.4434 60.1692C68.6077 60.0593 68.8007 60.0004 68.9982 60C69.0756 60.0004 69.1527 60.01 69.2278 60.0285C69.1242 60.0612 69.0338 60.1262 68.9698 60.2139C68.9057 60.3016 68.8714 60.4075 68.8719 60.516C68.8714 60.5842 68.8844 60.6518 68.9102 60.7149C68.9358 60.7779 68.9737 60.8354 69.0217 60.8838C69.0696 60.9322 69.1267 60.9708 69.1895 60.9971C69.2523 61.0235 69.3198 61.0372 69.3879 61.0374C69.5125 61.0349 69.6324 60.989 69.7265 60.9073C69.8208 60.8258 69.8836 60.7137 69.9039 60.5907C69.9653 60.7199 69.998 60.8607 70 61.0035Z" fill="#0F0F14"/>
<path d="M76 60.9982C76.0004 61.196 75.942 61.3897 75.8323 61.5544C75.7227 61.7189 75.5667 61.8474 75.3839 61.9233C75.2012 61.9994 75.0002 62.0194 74.806 61.9809C74.6119 61.9426 74.4335 61.8474 74.2934 61.7077C74.1535 61.568 74.0581 61.3898 74.0193 61.1957C73.9806 61.0017 74.0003 60.8007 74.0759 60.6177C74.1516 60.4349 74.2798 60.2787 74.4443 60.1688C74.6087 60.0587 74.8021 60 75 60C75.0477 59.9997 75.0954 60.0052 75.1418 60.016C75.0534 60.0568 74.9785 60.122 74.926 60.2041C74.8734 60.286 74.8456 60.3814 74.8457 60.4787C74.8397 60.6152 74.8879 60.7484 74.9799 60.8491C75.0721 60.9498 75.2005 61.0099 75.3369 61.0159C75.4732 61.0221 75.6064 60.9737 75.7073 60.8817C75.808 60.7895 75.8681 60.6613 75.8741 60.5248C75.956 60.6693 75.9993 60.8322 76 60.9982Z" fill="#0F0F14"/>
<path d="M83.6221 46C83.5152 46.7225 83.6484 47.356 84.1777 47.7321C85.3861 48.5769 86.3827 49.6915 87.0889 50.9885C92.6484 61.4124 84.3092 66 84.3092 66L83.1815 64.0205C86.4281 62.3576 86.7602 59.1013 84.1777 58.3029C81.5952 57.5045 80.7355 61.1617 80.7355 61.1617L80.1437 54.3075C80.1437 54.3075 78.947 53.712 75.7053 54.2432C72.4636 54.7743 71.8669 56.5708 70.4746 55.774C69.0822 54.9772 68.2932 55.0416 68.2932 55.0416C67.897 56.5015 66.8367 56.5015 66.8367 56.5015C63.7299 56.1039 63 51.7902 63 51.7902C64.5764 51.5922 64.6981 50.068 64.5189 48.8209C65.3918 49.3421 66.6263 49.3801 68.3573 48.2633C73.3234 45.0762 78.416 46.8034 80.2045 47.069C81.4407 47.2488 82.8593 46.4899 83.6221 46Z" stroke="#0F0F14" stroke-width="0.799382" stroke-linecap="round" stroke-linejoin="round"/>
<path d="M86.8908 97.4784L88.0963 97L89 99.4093L88.858 103.782L87.6364 104L83 103.802C83 103.802 83.3228 101.136 84.3088 99.8686C85.2948 98.6009 86.8908 97.4784 86.8908 97.4784Z" fill="#0050CF"/>
<path d="M65 58C65 58 66.2884 55.7863 69 56.0168" stroke="#0F0F14" stroke-width="0.799382" stroke-miterlimit="10"/>
<path d="M74 55.119C74 55.119 76.963 54.5226 78 56" stroke="#0F0F14" stroke-width="0.799382" stroke-miterlimit="10"/>
<path d="M79 65.3023C79 65.3023 77.2677 64.2782 76 66" stroke="#0F0F14" stroke-width="0.799382" stroke-miterlimit="10"/>
<path d="M67.0567 56C67.0567 56 65.7898 71.2781 75.2368 70.9961C76.8548 70.948 78.463 69.8583 80 68.1051" stroke="#0F0F14" stroke-width="0.799382" stroke-miterlimit="10"/>
<path d="M84.7022 69.0971L81 67.7096C81 67.7096 81.918 70.7628 86.465 70.9963C91.012 71.2298 92.5378 60.3696 89.1967 56" stroke="#0F0F14" stroke-width="0.799382" stroke-linejoin="round"/>
<path d="M100 100C100 100 96.4106 102.73 98.849 104" stroke="#0F0F14" stroke-width="0.799382" stroke-miterlimit="10"/>
<path d="M97 97C97 97 90.8711 100.535 96.1337 104" stroke="#0F0F14" stroke-width="0.799382" stroke-miterlimit="10"/>
<path d="M94 94C94 94 86.3242 97.9951 92.2385 104" stroke="#0F0F14" stroke-width="0.799382" stroke-miterlimit="10"/>
<path d="M128.956 104C128.956 104 138.866 104 138.999 94.4798C139.132 84.9597 119.782 61.0543 107.26 57.7287C94.7379 54.4032 94.2006 63.5166 94.2006 63.8903C94.2006 64.264 93.4654 68.1898 96.6791 72.3786C99.1609 75.6165 110.123 83.6996 114.986 87.212C115.165 87.3413 115.3 87.5214 115.373 87.7287C115.446 87.9359 115.454 88.1603 115.396 88.3722C115.338 88.584 115.216 88.7732 115.047 88.9146C114.878 89.0558 114.669 89.1426 114.449 89.1633L92.9381 91.2171H92.9248C92.7218 91.2535 85.1301 92.6459 82.8179 95.0107C82.8179 95.0107 81.5221 95.9648 82.1925 97.43C82.8628 98.8951 84.9221 98.4122 84.9787 98.3577" stroke="#0F0F14" stroke-width="0.799382" stroke-miterlimit="10"/>
<path opacity="0.26" d="M75.5 63C76.8807 63 78 61.8807 78 60.5C78 59.1193 76.8807 58 75.5 58C74.1193 58 73 59.1193 73 60.5C73 61.8807 74.1193 63 75.5 63Z" fill="white"/>
<path opacity="0.26" d="M68.5 63C69.8807 63 71 61.8807 71 60.5C71 59.1193 69.8807 58 68.5 58C67.1193 58 66 59.1193 66 60.5C66 61.8807 67.1193 63 68.5 63Z" fill="white"/>
<path d="M92 97.2708C91.0491 97.0257 89.4952 96.8055 87.8942 97.2801C87.1113 97.5129 86.389 97.8926 85.7724 98.3953C85.638 98.5039 85.5087 98.614 85.3843 98.7241C85.1164 98.9667 84.8634 99.2229 84.6267 99.4919C84.5956 99.5274 84.5512 99.5511 84.5024 99.5586C83.906 99.6346 79.9799 100.208 80.0001 102.04C80.0186 103.686 81.9707 103.956 82.6427 103.999C82.6704 104.002 82.6983 103.999 82.7246 103.991C82.751 103.982 82.7754 103.969 82.796 103.952C82.8167 103.935 82.8333 103.914 82.8448 103.891C82.8563 103.867 82.8624 103.842 82.8627 103.816C82.8627 103.23 83.0072 101.392 84.578 99.5431" stroke="#0F0F14" stroke-width="0.799382" stroke-miterlimit="10"/>
<path d="M56.9482 83C57.4391 86.9493 54.3629 88.7354 51 89" stroke="#0F0F14" stroke-width="0.799382" stroke-miterlimit="10"/>
<path d="M46.4223 87.8428C45.2466 87.2027 44.2943 86.214 43.6942 85.0107C43.0943 83.8072 42.8756 82.4471 43.0678 81.1144C43.5606 77.5962 46.5176 74.8976 49.4121 73.1857C55.4903 69.5914 69.1875 72.1923 71.489 72.7221C73.2533 73.1294 74.7285 71.7387 75.3265 71.0665C75.3519 71.0381 75.3848 71.0174 75.4214 71.0073C75.458 70.997 75.4968 70.9977 75.5331 71.0089C75.5694 71.0203 75.6018 71.0419 75.6263 71.0712C75.6507 71.1005 75.6665 71.1361 75.6714 71.1742C76.9347 78.6244 91.6061 88.7368 95 91" stroke="#0F0F14" stroke-width="0.799382" stroke-miterlimit="10"/>
<path d="M61 80.5937L55.9093 83.6288C55.6059 83.8102 55.2662 83.9286 54.9125 83.9763C54.5585 84.0239 54.1982 83.9996 53.8545 83.9052C53.5109 83.8107 53.1917 83.6481 52.9177 83.428C52.6434 83.2077 52.4205 82.9346 52.2629 82.6265C51.979 82.0729 51.9227 81.4369 52.1052 80.8453C52.2877 80.2535 52.6957 79.7497 53.2477 79.4343L60.9948 75" stroke="#0F0F14" stroke-width="0.799382" stroke-miterlimit="10"/>
<path d="M75.5 63C76.8807 63 78 61.8807 78 60.5C78 59.1193 76.8807 58 75.5 58C74.1193 58 73 59.1193 73 60.5C73 61.8807 74.1193 63 75.5 63Z" stroke="#0F0F14" stroke-width="0.799382" stroke-miterlimit="10"/>
<path d="M68.5 63C69.8808 63 71 61.8808 71 60.5C71 59.1192 69.8808 58 68.5 58C67.1192 58 66 59.1192 66 60.5C66 61.8808 67.1192 63 68.5 63Z" stroke="white" stroke-width="0.799382" stroke-miterlimit="10"/>
<path d="M68.5 63C69.8807 63 71 61.8807 71 60.5C71 59.1193 69.8807 58 68.5 58C67.1193 58 66 59.1193 66 60.5C66 61.8807 67.1193 63 68.5 63Z" stroke="#0F0F14" stroke-width="0.799382" stroke-miterlimit="10"/>
<path d="M72 60H71" stroke="#0F0F14" stroke-width="0.799382" stroke-miterlimit="10"/>
<path d="M72 64H71.2996C71.2555 64 71.212 63.9861 71.1721 63.959C71.1322 63.932 71.097 63.8924 71.0689 63.8433C71.0407 63.7943 71.0205 63.737 71.0094 63.6753C70.9985 63.6135 70.997 63.5492 71.0053 63.4866L71.4686 60" stroke="#0F0F14" stroke-width="0.799382" stroke-miterlimit="10"/>
<path d="M54 73C54 73 50.6343 73.7151 49.4474 78.7191C48.726 81.7571 47.7358 85.6328 47.0702 88.209C46.9848 88.5395 46.9773 88.8848 47.0479 89.2186C47.1187 89.5524 47.2661 89.8659 47.4786 90.1351C47.6912 90.4044 47.9634 90.6223 48.2744 90.7721C48.5855 90.922 48.9272 91 49.2736 91C49.7906 91 50.2925 90.8266 50.6959 90.5082C51.0996 90.1898 51.3807 89.7454 51.4933 89.2486L52.9016 83.0274" stroke="#0F0F14" stroke-width="0.799382" stroke-miterlimit="10"/>
<path d="M57 85.0953C57 85.0953 60.5214 82.9432 67.4581 85.0953C74.3948 87.2474 82.3691 88.7078 85 83" stroke="#0F0F14" stroke-width="0.799382" stroke-miterlimit="10"/>
<path d="M88 97C88 97 89.7004 99.76 88.6666 104" stroke="#0F0F14" stroke-width="0.799382" stroke-miterlimit="10"/>
<path d="M5.75935 62H45.1087C46.3762 61.9984 47.6073 62.4216 48.6038 63.2016C49.6004 63.9818 50.3045 65.0732 50.6027 66.3003L56.867 92.145C57.0361 92.8423 57.044 93.5689 56.8904 94.2697C56.7369 94.9706 56.4256 95.6277 55.9801 96.1914C55.5345 96.7551 54.9665 97.2107 54.3186 97.524C53.6708 97.8372 52.96 98 52.2397 98H12.9917C11.7267 98.0012 10.4979 97.5791 9.50252 96.8014C8.50723 96.0237 7.80293 94.9354 7.50268 93.7113L1.13704 67.8715C0.965153 67.1734 0.954826 66.4455 1.10683 65.7429C1.25883 65.0403 1.56919 64.3812 2.01444 63.8157C2.4597 63.2501 3.02821 62.7927 3.67697 62.4782C4.32575 62.1636 5.03781 62.0002 5.75935 62Z" fill="#0050CF"/>
<path d="M30.3354 83.8316C32.4172 83.1602 33.5069 80.6768 32.7693 78.2846C32.0317 75.8924 29.7462 74.4972 27.6646 75.1684C25.5828 75.8398 24.4931 78.3232 25.2307 80.7154C25.9682 83.1076 28.2537 84.5028 30.3354 83.8316Z" fill="#D7E8F0"/>
<path d="M5.75935 62H45.1087C46.3762 61.9984 47.6073 62.4216 48.6038 63.2016C49.6004 63.9818 50.3045 65.0732 50.6027 66.3003L56.867 92.145C57.0361 92.8423 57.044 93.5689 56.8904 94.2697C56.7369 94.9706 56.4256 95.6277 55.9801 96.1914C55.5345 96.7551 54.9665 97.2107 54.3186 97.524C53.6708 97.8373 52.96 98 52.2398 98H12.9917C11.7267 98.0012 10.4979 97.5791 9.50252 96.8014C8.50723 96.0237 7.80293 94.9354 7.50268 93.7113L1.13704 67.8715C0.965153 67.1734 0.954826 66.4455 1.10683 65.7429C1.25883 65.0403 1.56919 64.3812 2.01444 63.8157C2.4597 63.2501 3.02821 62.7927 3.67697 62.4782C4.32575 62.1636 5.03781 62.0002 5.75935 62Z" stroke="#0F0F14" stroke-width="0.799382" stroke-miterlimit="10"/>
<path d="M46 82.2788C45.9995 82.4701 45.9255 82.6532 45.794 82.7884C45.6626 82.9236 45.4842 82.9997 45.2983 83H41.5735C41.0062 82.4154 40.8331 81.5941 41.1747 81H44.4544C44.7668 81.0002 45.0722 81.0936 45.334 81.2686C45.5957 81.4437 45.8023 81.6931 45.9289 81.9865C45.9717 82.078 45.9958 82.1774 46 82.2788Z" fill="#0050CF"/>
<path d="M21 92H16.5898C16.2687 91.9997 15.9544 91.9062 15.6852 91.7306C15.4161 91.5551 15.2035 91.3053 15.0731 91.0112C15.0294 90.9223 15.0045 90.8252 15 90.7261C15.0005 90.5338 15.0769 90.3494 15.2129 90.2132C15.3486 90.0771 15.5327 90.0005 15.725 90H20.5851C20.2464 90.6019 20.4197 91.4204 21 92Z" fill="#0050CF"/>
</svg>
